<svg width="35" height="35" viewBox="0 0 35 35" fill="none" xmlns="http://www.w3.org/2000/svg">
<path d="M21.875 29.1667H7.29167C5.35851 29.1644 3.50519 28.3954 2.13824 27.0284C0.771286 25.6615 0.00231563 23.8082 0 21.875L0 7.29167C0.00231563 5.35851 0.771286 3.50519 2.13824 2.13824C3.50519 0.771286 5.35851 0.00231563 7.29167 0L21.875 0C23.8082 0.00231563 25.6615 0.771286 27.0284 2.13824C28.3954 3.50519 29.1644 5.35851 29.1667 7.29167V21.875C29.1644 23.8082 28.3954 25.6615 27.0284 27.0284C25.6615 28.3954 23.8082 29.1644 21.875 29.1667ZM7.29167 2.91667C6.13134 2.91667 5.01855 3.3776 4.19807 4.19807C3.3776 5.01855 2.91667 6.13134 2.91667 7.29167V21.875C2.91667 23.0353 3.3776 24.1481 4.19807 24.9686C5.01855 25.7891 6.13134 26.25 7.29167 26.25H21.875C23.0353 26.25 24.1481 25.7891 24.9686 24.9686C25.7891 24.1481 26.25 23.0353 26.25 21.875V7.29167C26.25 6.13134 25.7891 5.01855 24.9686 4.19807C24.1481 3.3776 23.0353 2.91667 21.875 2.91667H7.29167ZM35 27.7083V8.75C35 8.36323 34.8464 7.99229 34.5729 7.7188C34.2994 7.44531 33.9284 7.29167 33.5417 7.29167C33.1549 7.29167 32.784 7.44531 32.5105 7.7188C32.237 7.99229 32.0833 8.36323 32.0833 8.75V27.7083C32.0833 28.8687 31.6224 29.9815 30.8019 30.8019C29.9815 31.6224 28.8687 32.0833 27.7083 32.0833H8.75C8.36323 32.0833 7.99229 32.237 7.7188 32.5105C7.44531 32.784 7.29167 33.1549 7.29167 33.5417C7.29167 33.9284 7.44531 34.2994 7.7188 34.5729C7.99229 34.8464 8.36323 35 8.75 35H27.7083C29.6415 34.9977 31.4948 34.2287 32.8618 32.8618C34.2287 31.4948 34.9977 29.6415 35 27.7083Z" fill="#77808B"/>
</svg>
